inDegrees=yes
name=ik_lifting_orientations
DataType=double
version=3
OpenSimVersion=4.5-2024-01-10-34fd6af
endheader
time	pelvis_tilt	pelvis_list	pelvis_rotation	pelvis_tx	pelvis_ty	pelvis_tz	hip_flexion_r	hip_adduction_r	hip_rotation_r	knee_angle_r	knee_angle_r_beta	ankle_angle_r	subtalar_angle_r	mtp_angle_r	hip_flexion_l	hip_adduction_l	hip_rotation_l	knee_angle_l	knee_angle_l_beta	ankle_angle_l	subtalar_angle_l	mtp_angle_l	lumbar_extension	lumbar_bending	lumbar_rotation	arm_flex_r	arm_add_r	arm_rot_r	elbow_flex_r	pro_sup_r	wrist_flex_r	wrist_dev_r	arm_flex_l	arm_add_l	arm_rot_l	elbow_flex_l	pro_sup_l	wrist_flex_l	wrist_dev_l
0.02	-0.002464592181796386	-0.008468627788055469	-89.94042803526884	0	0.9399999998679526	0	45.62437391276821	-11.00226908401204	0	60.63619672293415	1.058301278702197	-5.384903598967304	0	0	45.62437391276821	-11.00226908401204	0	60.63619672293415	1.058301278702197	-5.384903598967304	0	0	-0.01489753325573692	0.0008254712278438932	0.008935696833426049	-0.4728131821884654	-0.1043744708337837	-0.03200898773774297	0.9923363973246528	1.539283882812469	0	0	0	-10.39822389979122	0	88.51452587667502	1.539283882812469	0	0
0.03	-0.003092679796153784	0.002007682472659586	-89.94442655558487	0	0.9399999998679526	0	45.62085076451772	-10.98863237318597	0	60.63263616255236	1.058239135200318	-5.378627992575845	0	0	45.62085076451772	-10.98863237318597	0	60.63263616255236	1.058239135200318	-5.378627992575845	0	0	0.2526007752739128	0.05434798202128436	3.6308468447234	-1.298232401712066	0.4872597642312309	-3.671316999889174	1.064861939316775	1.532633885958907	0	0	0	-10.41401445344931	0	88.5209425978305	1.532633885958907	0	0
0.04	-0.8612383292483563	0.2320802220325693	-89.31530671139963	0	0.9399999998679526	0	45.62059470954419	-10.98720480923091	0	60.63243169914125	1.058235566640595	-5.377915002250444	0	0	45.62059470954419	-10.98720480923091	0	60.63243169914125	1.058235566640595	-5.377915002250444	0	0	0.6338716152048539	0.979729721580971	5.171676652609913	-1.209371573790013	1.104775830125465	-5.321605670464122	0.7933950237719687	1.532194229461761	0	0	0	-10.41498352822698	0	88.52136682774533	1.532194229461761	0	0
0.05	-0.001490120375724105	-0.01309510564179654	-89.9352385163217	0	0.9399999998679526	0	45.62041108248428	-10.98618452902145	0	60.63228474870976	1.058233001871728	-5.377405851923297	0	0	45.62041108248428	-10.98618452902145	0	60.63228474870976	1.058233001871728	-5.377405851923297	0	0	0.3747070017803306	0.1286106287793237	5.79414328900276	-2.091343618335367	1.790163923346026	-4.79914844714167	1.287619717654004	1.53187864557507	0	0	0	-10.41567965091809	0	88.52167133851421	1.53187864557507	0	0
0.06	-0.004283864502331123	-0.0008310611835288561	-89.94192476158977	0	0.9399999998679526	0	45.60596517119413	-10.91499438872023	0	60.62064896805122	1.058029919188197	-5.343534658526962	0	0	45.60596517119413	-10.91499438872023	0	60.62064896805122	1.058029919188197	-5.343534658526962	0	0	0.3898941715529018	0.1288707092964694	5.805269416258418	-1.883609636116948	1.868211898536717	-4.751261432451988	0.7646196993398982	1.506689140196858	0	0	0	-10.47170487870478	0	88.54597704823664	1.506689140196858	0	0
0.07000000000000001	-0.6285811924923987	0.3574626451025141	-90.8016506991686	0	0.9399999998679526	0	45.60579433778376	-10.91410786873476	0	60.62050980287736	1.058027490297709	-5.343102094862276	0	0	45.60579433778376	-10.91410786873476	0	60.62050980287736	1.058027490297709	-5.343102094862276	0	0	0.7298361902469055	0.765085522326621	6.658009565971331	-1.868445744635882	1.861287099193406	-4.749570129223168	0.7507572841533058	1.506391999300281	0	0	0	-10.47236588092018	0	88.54626376352704	1.506391999300281	0	0
0.08	-0.6221139194757013	0.3674649134739244	-90.80552340618492	0	0.9399999998679526	0	45.60307989281245	-10.90405575041535	0	60.6177666576198	1.057979613381104	-5.338554446814179	0	0	45.60307989281245	-10.90405575041535	0	60.6177666576198	1.057979613381104	-5.338554446814179	0	0	0.9786358732866085	-0.2518207966308904	12.84913856906736	-1.683870819718673	2.607128792872393	-10.23899813773778	0.4772780258847653	1.50123995059532	0	0	0	-10.4846391569219	0	88.55123508529577	1.50123995059532	0	0
0.09	-0.6308278549563939	0.3596147913830416	-90.80065100959116	0	0.9399999998679526	0	45.60250308834696	-10.90103742550742	0	60.61730356102591	1.057971530820786	-5.337082071353528	0	0	45.60250308834696	-10.90103742550742	0	60.61730356102591	1.057971530820786	-5.337082071353528	0	0	0.02019998485205139	-0.0297736055290686	15.47341060250544	-1.649828817413735	2.365156250086557	-12.85132569571596	1.263959625859646	1.500241010281976	0	0	0	-10.48685248581138	0	88.55219897603442	1.500241010281976	0	0
0.1	-1.260182655945141	1.468175601003493	-89.80074730643605	0	0.9399999998679526	0	45.59866014864948	-10.88736589073777	0	60.61337895953355	1.057903033602915	-5.330978505649258	0	0	45.59866014864948	-10.88736589073777	0	60.61337895953355	1.057903033602915	-5.330978505649258	0	0	2.06827217982325	0.00595557746453971	20.31634980737079	-2.044640941076068	3.398359843099942	-18.67565426645062	1.21875134076655	1.492896584171945	0	0	0	-10.50443112400968	0	88.55928577360066	1.492896584171945	0	0
